<svg width="128" height="128" viewBox="0 0 128 128" fill="none" xmlns="http://www.w3.org/2000/svg">
<rect width="128" height="128" fill="white"/>
<path d="M73.255 37.0471C76.5124 29.6558 72.8658 16.8589 72.8658 16.8589C72.8658 16.8589 59.9818 18.4989 54.9109 30.8991C49.84 43.2993 59.874 51.1292 59.874 51.1292C59.874 51.1292 69.9977 44.4385 73.255 37.0471Z" fill="#66D393" stroke="#4EB076" stroke-width="3"/>
<path d="M37.7607 49.5209C40.5404 47.8608 44.2402 47.205 48.4242 47.2086C48.9445 47.209 50.6722 47.4984 52.7647 48.1628C54.8389 48.8214 56.7659 49.6923 57.8534 50.5892L60.2194 52.541L61.6537 49.8308C64.0776 45.2515 67.7381 43.6335 69.1357 42.988C70.8826 42.1812 76.6313 40.4677 82.8771 41.8568C88.8893 43.1939 95.7345 47.4802 99.9457 59.3309C105.483 74.915 98.0533 91.1249 92.0642 100.622C89.3706 104.894 84.4574 107.054 79.1607 106.799L75.242 106.612C71.4949 106.432 67.7721 107.204 64.4064 108.86L63.2491 109.431C57.1961 112.41 50.1284 111.541 45.5282 106.768C38.1622 99.1246 29.1915 87.7757 27.1172 76.516C23.6523 57.7073 37.0578 49.9406 37.7607 49.5209Z" fill="#FF7878" stroke="#FB5757" stroke-width="5"/>
<path d="M53.3706 31.8535C57.1034 35.6544 60.4634 44.241 61.8136 47.9963C62.1883 49.0383 61.7075 50.1765 60.7157 50.6688C59.4557 51.2943 57.9267 50.6178 57.4908 49.2803C56.1894 45.2874 53.3808 37.7238 49.7813 34.1262C46.5709 30.9174 40.5178 27.6827 36.5706 25.7674C35.0507 25.0298 34.9603 22.8329 36.4405 22.0185C37.0151 21.7024 37.7014 21.6815 38.2863 21.9782C41.066 23.3881 49.3678 27.7778 53.3706 31.8535Z" fill="#7B532C"/>
</svg>
