<svg width="1512" height="602" viewBox="0 0 1512 602" fill="none" xmlns="http://www.w3.org/2000/svg">
<g filter="url(#filter0_g_396_3)">
<path d="M-159.806 374.632C-175.826 368.693 -187.062 367.738 -195 374.632H-159.806C-103.033 395.679 13.8264 479.313 256.926 497.921C283.384 499.947 382 499.947 382 499.947V374.632H-159.806Z" fill="#06B58E"/>
</g>
<g filter="url(#filter1_g_396_3)">
<path d="M1715.81 379.838C1731.83 373.899 1743.06 372.943 1751 379.838H1715.81C1659.03 400.885 1542.17 484.519 1299.07 503.127C1272.62 505.152 1174 505.152 1174 505.152V379.838H1715.81Z" fill="#06B58E"/>
</g>
<g filter="url(#filter2_g_396_3)">
<path d="M1143.5 392.196C1143.5 392.196 1450.2 470.883 1138.5 494.741C1128.31 495.522 1005.89 492.688 859.235 488.908L761 522.33L647.454 483.282C477.794 478.671 329.5 474.441 329.5 474.441L373.5 389.073L647.454 483.282C717.381 485.183 790.937 487.148 859.235 488.908L1143.5 392.196Z" fill="#06B58E"/>
</g>
<g filter="url(#filter3_g_396_3)">
<path d="M875.414 421.867C875.414 421.867 992.747 500.553 873.501 524.412C869.601 525.192 822.769 522.358 766.662 518.579L729.08 552L685.64 512.953C620.733 508.342 564 504.111 564 504.111L580.833 418.743L685.64 512.953C712.392 514.853 740.533 516.818 766.662 518.579L875.414 421.867Z" fill="#06B58E"/>
</g>
<g filter="url(#filter4_g_396_3)">
<path d="M-159.806 374.632C-175.826 368.693 -187.062 367.738 -195 374.632H-159.806C-103.033 395.679 13.8264 479.313 256.926 497.921C283.384 499.947 382 499.947 382 499.947V374.632H-159.806Z" fill="#06B58E"/>
</g>
<g filter="url(#filter5_g_396_3)">
<path d="M1715.81 379.838C1731.83 373.899 1743.06 372.943 1751 379.838H1715.81C1659.03 400.885 1542.17 484.519 1299.07 503.127C1272.62 505.152 1174 505.152 1174 505.152V379.838H1715.81Z" fill="#06B58E"/>
</g>
<g filter="url(#filter6_g_396_3)">
<path d="M1143.5 392.196C1143.5 392.196 1450.2 470.883 1138.5 494.741C1128.31 495.522 1005.89 492.688 859.235 488.908L761 522.33L647.454 483.282C477.794 478.671 329.5 474.441 329.5 474.441L373.5 389.073L647.454 483.282C717.381 485.183 790.937 487.148 859.235 488.908L1143.5 392.196Z" fill="#06B58E"/>
</g>
<g filter="url(#filter7_g_396_3)">
<path d="M875.414 421.867C875.414 421.867 992.747 500.553 873.501 524.412C869.601 525.192 822.769 522.358 766.662 518.579L729.08 552L685.64 512.953C620.733 508.342 564 504.111 564 504.111L580.833 418.743L685.64 512.953C712.392 514.853 740.533 516.818 766.662 518.579L875.414 421.867Z" fill="#06B58E"/>
</g>
<g filter="url(#filter8_g_396_3)">
<path d="M1122.62 479.646C1419.92 455.787 1127.39 377.101 1127.39 377.101L767 384.909L392.967 373.978L351 459.345C351 459.345 1097.39 481.671 1122.62 479.646Z" fill="#06B58E"/>
</g>
<path d="M31.492 50.5039C0 75.0913 0 161.479 0 161.479V425.767H760V25.9161C760 25.9161 678 25.9161 656 28.1069C396.822 53.9168 124.968 180.086 94.9757 146.195C118.47 125.595 155.96 143.537 168.957 69.7751C104.473 50.5039 91.6042 173.679 60.9844 128.918C102.974 104.33 147.462 69.7751 120.969 0C31.492 34.5553 71.9816 103.001 36.4907 128.918C60.9844 86.3882 45.9883 65.788 31.492 50.5039Z" fill="#06B58E"/>
<path d="M1480.51 53.0225C1512 78.836 1512 169.532 1512 169.532V447H752V27.2085C752 27.2085 834 27.2085 856 29.5086C1115.18 56.6056 1387.03 189.067 1417.02 153.486C1393.53 131.858 1356.04 150.695 1343.04 73.2547C1407.53 53.0225 1420.4 182.34 1451.02 135.347C1409.03 109.533 1364.54 73.2547 1391.03 0C1480.51 36.2786 1440.02 108.138 1475.51 135.347C1451.02 90.6963 1466.01 69.0687 1480.51 53.0225Z" fill="#06B58E"/>
<defs>
<filter id="filter0_g_396_3" x="-245" y="319.813" width="677" height="230.134" filterUnits="userSpaceOnUse" color-interpolation-filters="sRGB">
<feFlood flood-opacity="0" result="BackgroundImageFix"/>
<feBlend mode="normal" in="SourceGraphic" in2="BackgroundImageFix" result="shape"/>
<feTurbulence type="fractalNoise" baseFrequency="0.033333335071802139 0.033333335071802139" numOctaves="3" seed="7612" />
<feDisplacementMap in="shape" scale="100" xChannelSelector="R" yChannelSelector="G" result="displacedImage" width="100%" height="100%" />
<feMerge result="effect1_texture_396_3">
<feMergeNode in="displacedImage"/>
</feMerge>
</filter>
<filter id="filter1_g_396_3" x="1124" y="325.018" width="677" height="230.134" filterUnits="userSpaceOnUse" color-interpolation-filters="sRGB">
<feFlood flood-opacity="0" result="BackgroundImageFix"/>
<feBlend mode="normal" in="SourceGraphic" in2="BackgroundImageFix" result="shape"/>
<feTurbulence type="fractalNoise" baseFrequency="0.033333335071802139 0.033333335071802139" numOctaves="3" seed="7612" />
<feDisplacementMap in="shape" scale="100" xChannelSelector="R" yChannelSelector="G" result="displacedImage" width="100%" height="100%" />
<feMerge result="effect1_texture_396_3">
<feMergeNode in="displacedImage"/>
</feMerge>
</filter>
<filter id="filter2_g_396_3" x="279.5" y="339.073" width="1048.84" height="233.257" filterUnits="userSpaceOnUse" color-interpolation-filters="sRGB">
<feFlood flood-opacity="0" result="BackgroundImageFix"/>
<feBlend mode="normal" in="SourceGraphic" in2="BackgroundImageFix" result="shape"/>
<feTurbulence type="fractalNoise" baseFrequency="0.033333335071802139 0.033333335071802139" numOctaves="3" seed="7612" />
<feDisplacementMap in="shape" scale="100" xChannelSelector="R" yChannelSelector="G" result="displacedImage" width="100%" height="100%" />
<feMerge result="effect1_texture_396_3">
<feMergeNode in="displacedImage"/>
</feMerge>
</filter>
<filter id="filter3_g_396_3" x="514" y="368.743" width="463" height="233.257" filterUnits="userSpaceOnUse" color-interpolation-filters="sRGB">
<feFlood flood-opacity="0" result="BackgroundImageFix"/>
<feBlend mode="normal" in="SourceGraphic" in2="BackgroundImageFix" result="shape"/>
<feTurbulence type="fractalNoise" baseFrequency="0.033333335071802139 0.033333335071802139" numOctaves="3" seed="7612" />
<feDisplacementMap in="shape" scale="100" xChannelSelector="R" yChannelSelector="G" result="displacedImage" width="100%" height="100%" />
<feMerge result="effect1_texture_396_3">
<feMergeNode in="displacedImage"/>
</feMerge>
</filter>
<filter id="filter4_g_396_3" x="-245" y="319.813" width="677" height="230.134" filterUnits="userSpaceOnUse" color-interpolation-filters="sRGB">
<feFlood flood-opacity="0" result="BackgroundImageFix"/>
<feBlend mode="normal" in="SourceGraphic" in2="BackgroundImageFix" result="shape"/>
<feTurbulence type="fractalNoise" baseFrequency="0.033333335071802139 0.033333335071802139" numOctaves="3" seed="7612" />
<feDisplacementMap in="shape" scale="100" xChannelSelector="R" yChannelSelector="G" result="displacedImage" width="100%" height="100%" />
<feMerge result="effect1_texture_396_3">
<feMergeNode in="displacedImage"/>
</feMerge>
</filter>
<filter id="filter5_g_396_3" x="1124" y="325.018" width="677" height="230.134" filterUnits="userSpaceOnUse" color-interpolation-filters="sRGB">
<feFlood flood-opacity="0" result="BackgroundImageFix"/>
<feBlend mode="normal" in="SourceGraphic" in2="BackgroundImageFix" result="shape"/>
<feTurbulence type="fractalNoise" baseFrequency="0.033333335071802139 0.033333335071802139" numOctaves="3" seed="7612" />
<feDisplacementMap in="shape" scale="100" xChannelSelector="R" yChannelSelector="G" result="displacedImage" width="100%" height="100%" />
<feMerge result="effect1_texture_396_3">
<feMergeNode in="displacedImage"/>
</feMerge>
</filter>
<filter id="filter6_g_396_3" x="279.5" y="339.073" width="1048.84" height="233.257" filterUnits="userSpaceOnUse" color-interpolation-filters="sRGB">
<feFlood flood-opacity="0" result="BackgroundImageFix"/>
<feBlend mode="normal" in="SourceGraphic" in2="BackgroundImageFix" result="shape"/>
<feTurbulence type="fractalNoise" baseFrequency="0.033333335071802139 0.033333335071802139" numOctaves="3" seed="7612" />
<feDisplacementMap in="shape" scale="100" xChannelSelector="R" yChannelSelector="G" result="displacedImage" width="100%" height="100%" />
<feMerge result="effect1_texture_396_3">
<feMergeNode in="displacedImage"/>
</feMerge>
</filter>
<filter id="filter7_g_396_3" x="514" y="368.743" width="463" height="233.257" filterUnits="userSpaceOnUse" color-interpolation-filters="sRGB">
<feFlood flood-opacity="0" result="BackgroundImageFix"/>
<feBlend mode="normal" in="SourceGraphic" in2="BackgroundImageFix" result="shape"/>
<feTurbulence type="fractalNoise" baseFrequency="0.033333335071802139 0.033333335071802139" numOctaves="3" seed="7612" />
<feDisplacementMap in="shape" scale="100" xChannelSelector="R" yChannelSelector="G" result="displacedImage" width="100%" height="100%" />
<feMerge result="effect1_texture_396_3">
<feMergeNode in="displacedImage"/>
</feMerge>
</filter>
<filter id="filter8_g_396_3" x="301" y="323.977" width="1005" height="205.798" filterUnits="userSpaceOnUse" color-interpolation-filters="sRGB">
<feFlood flood-opacity="0" result="BackgroundImageFix"/>
<feBlend mode="normal" in="SourceGraphic" in2="BackgroundImageFix" result="shape"/>
<feTurbulence type="fractalNoise" baseFrequency="0.033333335071802139 0.033333335071802139" numOctaves="3" seed="7612" />
<feDisplacementMap in="shape" scale="100" xChannelSelector="R" yChannelSelector="G" result="displacedImage" width="100%" height="100%" />
<feMerge result="effect1_texture_396_3">
<feMergeNode in="displacedImage"/>
</feMerge>
</filter>
</defs>
</svg>
