<svg width="128" height="128" viewBox="0 0 128 128" fill="none" xmlns="http://www.w3.org/2000/svg">
<rect width="128" height="128" fill="white"/>
<path d="M98.7211 63.0805L66.4567 50.8524C62.9919 49.5393 59.1234 51.2963 57.8162 54.777L45.6436 87.1885C44.3364 90.6691 46.0855 94.5553 49.5504 95.8684L81.8147 108.097C85.2796 109.41 89.1481 107.653 90.4553 104.172L102.628 71.7605C103.935 68.2798 102.186 64.3937 98.7211 63.0805Z" fill="#D6FFF7" stroke="#2FCFAF" stroke-width="6"/>
<path d="M79.2085 81.653C79.7133 82.384 80.0779 83.1549 80.3026 83.9659C80.5604 84.7626 80.6542 85.6588 80.584 86.6544C80.4992 87.7548 80.2557 88.8045 79.8534 89.8036C79.4844 90.7886 78.9381 91.6323 78.2145 92.3348C77.5241 93.0231 76.647 93.5248 75.5833 93.84C74.5528 94.141 73.3456 94.1626 71.9614 93.9047C71.2076 93.7922 70.3499 93.5959 69.388 93.3159C68.4261 93.0358 67.5782 92.7467 66.8441 92.4484C65.911 92.097 64.9519 91.7074 63.9669 91.2795C62.996 90.885 62.0871 90.4051 61.2402 89.8395C60.8855 89.557 60.6709 89.2346 60.5964 88.8722C60.5551 88.4955 60.5756 88.1026 60.6578 87.693C60.6493 87.4404 60.688 87.2071 60.7743 86.993L68.9341 66.7252C69.2022 66.0591 69.5383 65.6006 69.9425 65.3496C70.3799 65.0844 70.8571 64.96 71.374 64.9763C71.9006 64.9688 72.4528 65.0685 73.0307 65.2756C73.6182 65.4589 74.2198 65.6757 74.8355 65.9258C75.3092 66.1183 75.7827 66.3107 76.2563 66.5031C76.7632 66.6814 77.2605 66.8834 77.7482 67.1092C78.5201 67.4505 79.2965 67.849 80.0775 68.3046C80.8916 68.7461 81.6202 69.2635 82.263 69.8569C82.5703 70.1201 82.8822 70.4406 83.1986 70.8183C83.5245 71.1721 83.7484 71.5399 83.8702 71.9216C84.3503 72.9193 84.5812 73.9542 84.5629 75.0262C84.5778 76.0842 84.3701 77.0792 83.9396 78.0116C83.5188 78.92 82.8991 79.7063 82.0807 80.3703C81.286 81.0439 80.3286 81.4714 79.2085 81.653ZM69.1854 88.5834C69.9386 88.8341 70.7182 89.0539 71.5238 89.2428C72.3294 89.4317 72.9414 89.4174 73.3597 89.1998C73.8207 88.9442 74.211 88.5908 74.5306 88.1393C74.8834 87.6737 75.1296 87.1648 75.2692 86.6126C75.4421 86.0462 75.4941 85.4722 75.4252 84.8906C75.3895 84.2949 75.2278 83.7725 74.9402 83.3235C74.5679 82.6739 74.0505 82.1455 73.388 81.7378C72.735 81.3066 72.0652 80.9513 71.3784 80.6723C71.0469 80.5376 70.7343 80.4245 70.4406 80.3327C70.1801 80.227 69.9289 80.1665 69.6871 80.1513C69.4785 80.1218 69.2933 80.1712 69.1315 80.2992C68.9697 80.4272 68.8218 80.6578 68.6877 80.9908C68.4861 81.6285 68.2371 82.2471 67.9407 82.8463C67.6444 83.4456 67.3812 84.0306 67.1513 84.6015C67.0173 84.9346 66.857 85.2985 66.6705 85.6933C66.5173 86.0739 66.5183 86.448 66.6734 86.8155C66.8285 87.183 67.1355 87.5154 67.5946 87.8125C68.0535 88.1098 68.5838 88.3667 69.1854 88.5834ZM76.7914 71.7443C76.0669 71.4223 75.456 71.1603 74.9587 70.9582C74.4947 70.742 74.1014 70.6238 73.7789 70.6035C73.4897 70.569 73.2284 70.6705 72.9951 70.9078C72.7951 71.131 72.5967 71.521 72.4001 72.0777C72.2181 72.5297 72.0243 72.9769 71.8187 73.4193C71.6463 73.8475 71.4739 74.2756 71.3015 74.7038C71.1099 75.1795 71.1203 75.599 71.3324 75.9619C71.554 76.3011 71.8802 76.5859 72.311 76.8163C72.7654 77.0562 73.2508 77.2534 73.7673 77.4079C74.3074 77.572 74.7813 77.6953 75.1889 77.7778C76.0989 77.9815 76.8651 77.9606 77.4873 77.7152C78.1429 77.4557 78.6787 76.9121 79.0945 76.0845C79.6202 75.0526 79.6329 74.1997 79.1326 73.5259C78.6656 72.838 77.8852 72.2441 76.7914 71.7443Z" fill="#2FCFAF"/>
<path d="M62.9178 17.8068L28.8585 23.2281C25.2009 23.8103 22.7057 27.2608 23.2852 30.9351L28.6819 65.1498C29.2614 68.824 32.6963 71.3307 36.3539 70.7485L70.4132 65.3272C74.0708 64.745 76.566 61.2945 75.9865 57.6202L70.5898 23.4055C70.0103 19.7313 66.5754 17.2246 62.9178 17.8068Z" fill="#EED6FF" stroke="#9E73F8" stroke-width="6"/>
<path d="M62.5188 52.5983C62.5687 52.7462 62.6058 52.8961 62.6303 53.048C62.676 53.1706 62.7132 53.3205 62.7418 53.4978C62.791 53.8018 62.7478 54.0948 62.6122 54.3768C62.5571 54.5158 62.4767 54.6589 62.371 54.8061C62.2614 54.928 62.1245 55.0414 61.9602 55.1461C61.3872 55.6035 60.7396 55.8392 60.0172 55.853C59.6477 55.8093 59.306 55.696 58.9918 55.5134C58.9332 55.4709 58.8913 55.4518 58.8661 55.4558C58.8368 55.4347 58.8054 55.4008 58.772 55.3542C58.7427 55.333 58.7134 55.3118 58.6841 55.2906C58.6507 55.244 58.6067 55.2122 58.5522 55.1951C58.4056 55.089 58.2864 54.9915 58.1943 54.9025C58.0983 54.7882 58.0022 54.6739 57.906 54.5596C57.8351 54.4412 57.7537 54.3375 57.6616 54.2485C57.5908 54.1301 57.5072 54.0138 57.4112 53.8995C57.3443 53.8063 57.2795 53.7259 57.2169 53.6581C57.15 53.5651 57.0958 53.4699 57.0542 53.3727C56.9166 53.1612 56.8208 52.9689 56.7669 52.7956L55.6717 51.0636C53.932 51.3473 52.1944 51.6438 50.4587 51.9529C48.7441 52.2326 47.0149 52.5017 45.2712 52.7601L44.7779 54.7514C44.7438 54.8609 44.7223 54.9683 44.7135 55.0738C44.7299 55.1751 44.7211 55.2805 44.687 55.3901C44.653 55.4996 44.6189 55.6091 44.5848 55.7187C44.5719 55.7988 44.5484 55.8936 44.5143 56.0032C44.4592 56.1421 44.404 56.2811 44.3488 56.4201C44.3148 56.5296 44.2702 56.6538 44.215 56.7929C44.1851 56.9277 44.1425 57.0646 44.0873 57.2037C44.0281 57.3173 43.9456 57.4477 43.8401 57.5949C43.7937 57.6285 43.762 57.6727 43.745 57.7274C43.7239 57.7569 43.7027 57.7863 43.6816 57.8158C43.6646 57.8705 43.6455 57.9126 43.6245 57.942C43.5992 57.9462 43.5655 57.9776 43.5232 58.0365C43.2828 58.3098 42.9942 58.5258 42.6576 58.6847C41.968 58.9012 41.2793 58.8835 40.5917 58.6318C40.4029 58.5845 40.2373 58.5205 40.0948 58.4398C39.9483 58.3338 39.827 58.2236 39.7309 58.1093C39.5135 57.8848 39.3801 57.6205 39.331 57.3166C39.3023 57.1393 39.2778 56.9873 39.2573 56.8606C39.258 56.7046 39.2587 56.5485 39.2592 56.3924C39.2728 56.1563 39.2991 55.918 39.3378 55.6777C39.3766 55.4374 39.396 55.3173 39.396 55.3173L44.1184 34.5816L44.247 33.9367C44.2729 33.7766 44.3134 33.627 44.3686 33.488C44.4237 33.349 44.4622 33.1867 44.484 33.0012C44.5568 32.6514 44.6485 32.3375 44.7587 32.0595C44.8099 31.8952 44.8756 31.7415 44.9559 31.5984C45.0363 31.4553 45.1167 31.3122 45.1971 31.1691C45.3156 30.9419 45.5033 30.7422 45.7602 30.5703C46.0928 30.3862 46.4859 30.257 46.9397 30.183C47.4188 30.1048 47.845 30.1003 48.2185 30.1694C48.5163 30.2508 48.7572 30.3805 48.9414 30.5584C49.1547 30.7576 49.3868 30.9927 49.6376 31.2637C49.8298 31.4923 50.0155 31.7609 50.1949 32.0696C50.274 32.2387 50.3615 32.3804 50.4576 32.4948C50.5538 32.6091 50.6393 32.738 50.7143 32.8818L51.0395 33.4527L62.0504 51.6219C62.0504 51.6219 62.1067 51.7296 62.2192 51.9453C62.3317 52.1609 62.4316 52.3786 62.5188 52.5983ZM52.0508 44.7522C51.6043 44.0711 51.1411 43.3668 50.6612 42.6391C50.2064 41.9074 49.7245 41.1672 49.2153 40.4183C49.0776 40.2068 48.9399 39.9953 48.8022 39.7838C48.6604 39.547 48.5206 39.3228 48.3829 39.1113C48.3441 39.3516 48.2948 39.6067 48.2349 39.8764C48.1709 40.1208 48.1068 40.3652 48.0428 40.6096C47.7957 41.4818 47.559 42.3393 47.333 43.1821C47.1321 44.0207 46.9272 44.8341 46.7181 45.6221L46.3075 47.4048L53.0018 46.3128L52.0508 44.7522Z" fill="#9E73F8"/>
</svg>
