<svg width="128" height="128" viewBox="0 0 128 128" fill="none" xmlns="http://www.w3.org/2000/svg">
<rect width="128" height="128" fill="white"/>
<g clip-path="url(#clip0_647_35)">
<path d="M82.1695 16.8401L30.378 26.4461C25.751 27.3043 22.6957 31.751 23.5539 36.378L36.1264 104.164C36.9846 108.791 41.4313 111.846 46.0584 110.988L97.8499 101.382C102.477 100.524 105.532 96.0772 104.674 91.4502L92.1015 23.6643C91.2433 19.0372 86.7966 15.9819 82.1695 16.8401Z" fill="#779EFF"/>
<path d="M81.4383 25.6419L34.2166 34.4003C33.3754 34.5564 32.8199 35.3649 32.9759 36.2061L35.5186 49.9157C35.6747 50.7569 36.4832 51.3124 37.3245 51.1564L84.5461 42.398C85.3874 42.242 85.9429 41.4335 85.7869 40.5922L83.2441 26.8827C83.0881 26.0414 82.2796 25.4859 81.4383 25.6419Z" fill="#E6F8FF"/>
<path d="M46.833 55.6957L38.4549 57.2496C37.6136 57.4056 37.0581 58.2141 37.2142 59.0554L38.7681 67.4334C38.9241 68.2747 39.7326 68.8302 40.5739 68.6742L48.9519 67.1203C49.7932 66.9642 50.3487 66.1557 50.1927 65.3145L48.6388 56.9364C48.4827 56.0951 47.6742 55.5396 46.833 55.6957Z" fill="#90E1FF"/>
<path d="M65.874 52.1641L57.4959 53.718C56.6547 53.874 56.0991 54.6825 56.2552 55.5238L57.8091 63.9018C57.9651 64.7431 58.7736 65.2986 59.6149 65.1426L67.9929 63.5886C68.8342 63.4326 69.3897 62.6241 69.2337 61.7828L67.6798 53.4048C67.5237 52.5635 66.7153 52.008 65.874 52.1641Z" fill="#90E1FF"/>
<path d="M68.9814 68.92L60.6034 70.4739C59.7621 70.63 59.2066 71.4385 59.3626 72.2797L60.9165 80.6578C61.0725 81.4991 61.881 82.0546 62.7223 81.8985L71.1004 80.3446C71.9416 80.1886 72.4971 79.3801 72.3411 78.5388L70.7872 70.1608C70.6312 69.3195 69.8227 68.764 68.9814 68.92Z" fill="#90E1FF"/>
<path d="M53.0483 89.2078L44.6703 90.7617C43.829 90.9177 43.2735 91.7262 43.4295 92.5675L44.9834 100.946C45.1394 101.787 45.9479 102.342 46.7892 102.186L55.1673 100.632C56.0085 100.476 56.564 99.6678 56.408 98.8265L54.8541 90.4485C54.6981 89.6072 53.8896 89.0517 53.0483 89.2078Z" fill="#90E1FF"/>
<path d="M72.0893 85.6761L63.7113 87.23C62.87 87.3861 62.3145 88.1946 62.4705 89.0359L64.0244 97.4139C64.1805 98.2552 64.9889 98.8107 65.8302 98.6546L74.2083 97.1007C75.0496 96.9447 75.6051 96.1362 75.449 95.2949L73.8951 86.9169C73.7391 86.0756 72.9306 85.5201 72.0893 85.6761Z" fill="#90E1FF"/>
<path d="M88.7841 65.2472L80.4061 66.8011C79.5648 66.9571 79.0093 67.7656 79.1653 68.6069L83.8271 93.741C83.9831 94.5823 84.7916 95.1378 85.6329 94.9818L94.0109 93.4279C94.8522 93.2718 95.4077 92.4633 95.2517 91.622L90.5899 66.4879C90.4339 65.6466 89.6254 65.0911 88.7841 65.2472Z" fill="#D0E6FF"/>
<path d="M49.9409 72.4517L41.5628 74.0056C40.7215 74.1616 40.166 74.9701 40.3221 75.8114L41.876 84.1894C42.032 85.0307 42.8405 85.5862 43.6818 85.4302L52.0598 83.8762C52.9011 83.7202 53.4566 82.9117 53.3006 82.0704L51.7467 73.6924C51.5906 72.8511 50.7822 72.2956 49.9409 72.4517Z" fill="#90E1FF"/>
<path d="M85.6762 48.4911L77.2982 50.045C76.4569 50.201 75.9014 51.0095 76.0574 51.8508L77.6113 60.2288C77.7674 61.0701 78.5759 61.6256 79.4171 61.4696L87.7952 59.9157C88.6365 59.7596 89.192 58.9511 89.0359 58.1099L87.482 49.7318C87.326 48.8905 86.5175 48.335 85.6762 48.4911Z" fill="#90E1FF"/>
<path d="M87.9275 77.6177C87.8105 76.9868 87.2041 76.5701 86.5731 76.6872C85.9422 76.8042 85.5255 77.4105 85.6426 78.0415L86.6314 83.373C86.7484 84.0039 87.3548 84.4206 87.9858 84.3035C88.6167 84.1865 89.0334 83.5802 88.9163 82.9492L87.9275 77.6177Z" fill="#779EFF"/>
<path d="M90.1568 81.1434C90.7878 81.0264 91.2044 80.42 91.0874 79.7891C90.9704 79.1581 90.364 78.7415 89.733 78.8585L84.4016 79.8474C83.7706 79.9644 83.354 80.5707 83.471 81.2017C83.588 81.8327 84.1944 82.2493 84.8253 82.1323L90.1568 81.1434Z" fill="#779EFF"/>
</g>
<defs>
<clipPath id="clip0_647_35">
<rect width="69.7166" height="85.9838" fill="white" transform="translate(22 28) rotate(-10.5075)"/>
</clipPath>
</defs>
</svg>
