<svg width="128" height="128" viewBox="0 0 128 128" fill="none" xmlns="http://www.w3.org/2000/svg">
<rect width="128" height="128" fill="white"/>
<path d="M81.622 13.8905C87.878 12.7302 93.8907 16.8608 95.0513 23.1167L107.624 90.903C108.784 97.1592 104.653 103.171 98.3965 104.331L46.605 113.937C40.349 115.098 34.3371 110.967 33.1767 104.711L20.6041 36.9247C19.4441 30.6689 23.5748 24.657 29.8305 23.4965L81.622 13.8905Z" fill="#C3D4FF" stroke="#7099FF" stroke-width="6"/>
<path d="M81.4388 25.6419L34.2171 34.4003C33.3758 34.5564 32.8203 35.3649 32.9764 36.2061L35.5191 49.9157C35.6752 50.7569 36.4837 51.3124 37.3249 51.1564L84.5466 42.398C85.3879 42.242 85.9434 41.4335 85.7874 40.5922L83.2446 26.8827C83.0886 26.0414 82.2801 25.4859 81.4388 25.6419Z" fill="#E6F8FF"/>
<path d="M46.833 55.6957L38.4549 57.2496C37.6136 57.4056 37.0581 58.2141 37.2142 59.0554L38.7681 67.4334C38.9241 68.2747 39.7326 68.8302 40.5739 68.6742L48.9519 67.1203C49.7932 66.9642 50.3487 66.1557 50.1927 65.3145L48.6388 56.9364C48.4827 56.0951 47.6742 55.5396 46.833 55.6957Z" fill="#E7F9FF"/>
<path d="M65.874 52.1641L57.4959 53.718C56.6547 53.874 56.0991 54.6825 56.2552 55.5238L57.8091 63.9018C57.9651 64.7431 58.7736 65.2986 59.6149 65.1426L67.9929 63.5886C68.8342 63.4326 69.3897 62.6241 69.2337 61.7828L67.6798 53.4048C67.5237 52.5635 66.7153 52.008 65.874 52.1641Z" fill="#E7F9FF"/>
<path d="M68.9819 68.9202L60.6038 70.4741C59.7626 70.6301 59.2071 71.4386 59.3631 72.2799L60.917 80.6579C61.073 81.4992 61.8815 82.0547 62.7228 81.8987L71.1008 80.3448C71.9421 80.1887 72.4976 79.3802 72.3416 78.5389L70.7877 70.1609C70.6317 69.3196 69.8232 68.7641 68.9819 68.9202Z" fill="#E7F9FF"/>
<path d="M53.0488 89.2078L44.6707 90.7617C43.8295 90.9177 43.274 91.7262 43.43 92.5675L44.9839 100.946C45.1399 101.787 45.9484 102.342 46.7897 102.186L55.1677 100.632C56.009 100.476 56.5645 99.6678 56.4085 98.8265L54.8546 90.4485C54.6985 89.6072 53.8901 89.0517 53.0488 89.2078Z" fill="#E7F9FF"/>
<path d="M72.0898 85.6763L63.7118 87.2302C62.8705 87.3862 62.315 88.1947 62.471 89.036L64.0249 97.414C64.1809 98.2553 64.9894 98.8108 65.8307 98.6548L74.2088 97.1009C75.05 96.9448 75.6055 96.1363 75.4495 95.295L73.8956 86.917C73.7396 86.0757 72.9311 85.5202 72.0898 85.6763Z" fill="#E7F9FF"/>
<path d="M88.7846 65.2473L80.4066 66.8012C79.5653 66.9572 79.0098 67.7657 79.1658 68.607L83.8276 93.7411C83.9836 94.5824 84.7921 95.1379 85.6334 94.9819L94.0114 93.428C94.8527 93.2719 95.4082 92.4634 95.2521 91.6222L90.5904 66.4881C90.4344 65.6468 89.6259 65.0913 88.7846 65.2473Z" fill="#D0E6FF"/>
<path d="M49.9409 72.4518L41.5628 74.0057C40.7215 74.1617 40.166 74.9702 40.3221 75.8115L41.876 84.1895C42.032 85.0308 42.8405 85.5863 43.6818 85.4303L52.0598 83.8764C52.9011 83.7203 53.4566 82.9118 53.3006 82.0706L51.7467 73.6925C51.5906 72.8512 50.7822 72.2957 49.9409 72.4518Z" fill="#E7F9FF"/>
<path d="M85.6767 48.4912L77.2987 50.0451C76.4574 50.2011 75.9019 51.0096 76.0579 51.8509L77.6118 60.229C77.7679 61.0702 78.5763 61.6257 79.4176 61.4697L87.7957 59.9158C88.637 59.7598 89.1925 58.9513 89.0364 58.11L87.4825 49.732C87.3265 48.8907 86.518 48.3352 85.6767 48.4912Z" fill="#E7F9FF"/>
<path d="M87.9275 77.6177C87.8105 76.9868 87.2041 76.5701 86.5731 76.6872C85.9422 76.8042 85.5255 77.4105 85.6426 78.0415L86.6314 83.373C86.7484 84.0039 87.3548 84.4206 87.9858 84.3035C88.6167 84.1865 89.0334 83.5802 88.9163 82.9492L87.9275 77.6177Z" fill="#779EFF"/>
<path d="M90.1573 81.1434C90.7883 81.0264 91.2049 80.42 91.0879 79.7891C90.9708 79.1581 90.3645 78.7415 89.7335 78.8585L84.402 79.8474C83.7711 79.9644 83.3544 80.5707 83.4715 81.2017C83.5885 81.8327 84.1949 82.2493 84.8258 82.1323L90.1573 81.1434Z" fill="#779EFF"/>
</svg>
