<svg width="349" height="70" viewBox="0 0 349 70" fill="none" xmlns="http://www.w3.org/2000/svg">
<path d="M0 69.3272C55.8895 75.4896 87 38.2883 87 0H0.00226092C0.00226092 38.2883 0.0078872 37.7448 0 69.3272Z" fill="white"/>
<path d="M349 62.3945C306.601 67.9406 283 34.4595 283 0H348.998C348.998 34.4595 348.994 33.9703 349 62.3945Z" fill="white"/>
<path d="M85 45C107.644 45 126 24.8528 126 0H44C44 24.8528 62.3563 45 85 45Z" fill="white"/>
<path d="M224 35C243.882 35 260 19.33 260 0H188C188 19.33 204.118 35 224 35Z" fill="white"/>
<path d="M274 48C298.853 48 319 26.5097 319 0H229C229 26.5097 249.147 48 274 48Z" fill="white"/>
<path d="M157 35C185.167 35 208 19.33 208 0H106C106 19.33 128.833 35 157 35Z" fill="white"/>
</svg>
