<svg width="349" height="47" viewBox="0 0 349 47" fill="none" xmlns="http://www.w3.org/2000/svg">
<path d="M0 46.5482C50.1078 50.6859 78 25.7079 78 0H0.00202703C0.00202703 25.7079 0.00707128 25.3429 0 46.5482Z" fill="white"/>
<path d="M349 35.654C320.734 38.8232 305 19.6911 305 0H348.999C348.999 19.6911 348.996 19.4116 349 35.654Z" fill="white"/>
<path d="M79 31C98.33 31 114 17.1208 114 0H44C44 17.1208 59.67 31 79 31Z" fill="white"/>
<path d="M279 31C307.167 31 330 17.1208 330 0H228C228 17.1208 250.833 31 279 31Z" fill="white"/>
</svg>
