<svg width="36" height="38" viewBox="0 0 36 38" fill="none" xmlns="http://www.w3.org/2000/svg">
<g clip-path="url(#clip0_488_11)">
<path d="M14.4 7.06977C14.4 3.16524 11.1764 0 7.2 0C3.22355 0 0 3.16524 0 7.06977V30.9302C0 34.8348 3.22355 38 7.2 38C11.1764 38 14.4 34.8348 14.4 30.9302V7.06977Z" fill="white"/>
<path d="M35.7389 7.06977C35.7389 3.16524 32.5153 0 28.5389 0C24.5624 0 21.3389 3.16524 21.3389 7.06977V30.9302C21.3389 34.8348 24.5624 38 28.5389 38C32.5153 38 35.7389 34.8348 35.7389 30.9302V7.06977Z" fill="white"/>
</g>
<defs>
<clipPath id="clip0_488_11">
<rect width="36" height="38" fill="white"/>
</clipPath>
</defs>
</svg>
