<svg width="1510" height="367" viewBox="0 0 1510 367" fill="none" xmlns="http://www.w3.org/2000/svg">
<g clip-path="url(#clip0_632_6)">
<path d="M30.492 43.825C-1 65.1608 -1 140.124 -1 140.124V369.461H759V22.4888C759 22.4888 677 22.4888 655 24.3899C395.822 46.7865 123.968 156.27 93.9757 126.862C117.47 108.986 154.96 124.555 167.957 60.5476C103.473 43.825 90.6042 150.711 59.9844 111.869C101.974 90.5331 146.462 60.5476 119.969 0C30.492 29.9855 70.9816 89.3798 35.4907 111.869C59.9844 74.9637 44.9883 57.0878 30.492 43.825Z" fill="#0FDAC2"/>
<path d="M1479.51 43.7703C1511 65.0794 1511 139.949 1511 139.949V369H751V22.4607C751 22.4607 833 22.4607 855 24.3594C1114.18 46.7281 1386.03 156.075 1416.02 126.703C1392.53 108.85 1355.04 124.399 1342.04 60.472C1406.53 43.7703 1419.4 150.522 1450.02 111.729C1408.03 90.42 1363.54 60.472 1390.03 0C1479.51 29.9481 1439.02 89.2682 1474.51 111.729C1450.02 74.8701 1465.01 57.0165 1479.51 43.7703Z" fill="#0FDAC2"/>
</g>
<defs>
<clipPath id="clip0_632_6">
<rect width="1510" height="367" fill="white"/>
</clipPath>
</defs>
</svg>
