<svg width="1510" height="357" viewBox="0 0 1510 357" fill="none" xmlns="http://www.w3.org/2000/svg">
<g clip-path="url(#clip0_558_5)">
<path d="M30.492 43.825C-1 65.1608 -1 140.124 -1 140.124V369.461H759V22.4888C759 22.4888 677 22.4888 655 24.3899C395.822 46.7865 123.968 156.27 93.9757 126.862C117.47 108.986 154.96 124.555 167.957 60.5476C103.473 43.825 90.6042 150.711 59.9844 111.869C101.974 90.5331 146.462 60.5476 119.969 0C30.492 29.9855 70.9816 89.3798 35.4907 111.869C59.9844 74.9637 44.9883 57.0878 30.492 43.825Z" fill="#06B58E"/>
<path d="M1479.51 46.0105C1511 68.4102 1511 147.112 1511 147.112V369.465H751L758.5 22.5C758.5 22.5 833 23.6102 855 25.6062C1114.18 49.1197 1386.03 164.063 1416.02 133.188C1392.53 114.421 1355.04 130.766 1342.04 63.567C1406.53 46.0105 1419.4 158.226 1450.02 117.448C1408.03 95.0478 1363.54 63.567 1390.03 0C1479.51 31.4808 1439.02 93.837 1474.51 117.448C1450.02 78.702 1465.01 59.9347 1479.51 46.0105Z" fill="#06B58E"/>
<rect x="-1" y="345" width="1512" height="41" fill="#06B58E"/>
</g>
<defs>
<clipPath id="clip0_558_5">
<rect width="1510" height="357" fill="white"/>
</clipPath>
</defs>
</svg>
