<svg width="1512" height="370" viewBox="0 0 1512 370" fill="none" xmlns="http://www.w3.org/2000/svg">
<path d="M31.492 43.825C0 65.1608 0 140.124 0 140.124V369.461H760V22.4888C760 22.4888 678 22.4888 656 24.3899C396.822 46.7865 124.968 156.27 94.9757 126.862C118.47 108.986 155.96 124.555 168.957 60.5476C104.473 43.825 91.6042 150.711 60.9844 111.869C102.974 90.5331 147.462 60.5476 120.969 0C31.492 29.9855 71.9816 89.3798 36.4907 111.869C60.9844 74.9637 45.9883 57.0878 31.492 43.825Z" fill="#0FDAC2"/>
<path d="M1480.51 43.7703C1512 65.0794 1512 139.949 1512 139.949V369H752V22.4607C752 22.4607 834 22.4607 856 24.3594C1115.18 46.7281 1387.03 156.075 1417.02 126.703C1393.53 108.85 1356.04 124.399 1343.04 60.472C1407.53 43.7703 1420.4 150.522 1451.02 111.729C1409.03 90.42 1364.54 60.472 1391.03 0C1480.51 29.9481 1440.02 89.2682 1475.51 111.729C1451.02 74.8701 1466.01 57.0165 1480.51 43.7703Z" fill="#0FDAC2"/>
</svg>
